HIERARCHY
ROOT Hips
{
	OFFSET -3.958830 18.904000 13.208200
	CHANNELS 6 Xposition Yposition Zposition Zrotation Yrotation Xrotation 
	JOINT LHipJoint
	{
		OFFSET 0.000000 0.000000 0.000000
		CHANNELS 3 Zrotation Yrotation Xrotation
		JOINT LeftUpLeg
		{
			OFFSET 1.800000 -1.400000 0.085000
			CHANNELS 3 Zrotation Yrotation Xrotation
			JOINT LeftLeg
			{
				OFFSET 2.215000 -6.000000 0.000000
				CHANNELS 3 Zrotation Yrotation Xrotation
				JOINT LeftFoot
				{
					OFFSET 2.500000 -6.900000 0.000000
					CHANNELS 3 Zrotation Yrotation Xrotation
					JOINT LeftToeBase
					{
						OFFSET 0.200000 -0.500000 1.950000
						CHANNELS 3 Zrotation Yrotation Xrotation
						End Site
						{
							OFFSET 0.000000 0.000000 0.000000
						}
					}
				}
			}
		}
	}
	JOINT RHipJoint
	{
		OFFSET 0.000000 0.000000 0.000000
		CHANNELS 3 Zrotation Yrotation Xrotation
		JOINT RightUpLeg
		{
			OFFSET -1.800000 -1.400000 0.085000
			CHANNELS 3 Zrotation Yrotation Xrotation
			JOINT RightLeg
			{
				OFFSET -2.215000 -6.000000 0.000000
				CHANNELS 3 Zrotation Yrotation Xrotation
				JOINT RightFoot
				{
					OFFSET -2.500000 -6.900000 0.000000
					CHANNELS 3 Zrotation Yrotation Xrotation
					JOINT RightToeBase
					{
						OFFSET -0.200000 -0.500000 1.950000
						CHANNELS 3 Zrotation Yrotation Xrotation
						End Site
						{
							OFFSET 0.000000 0.000000 0.000000
						}
					}
				}
			}
		}
	}
	JOINT LowerBack
	{
		OFFSET 0.000000 0.000000 0.000000
		CHANNELS 3 Zrotation Yrotation Xrotation
		JOINT Spine
		{
			OFFSET -0.087000 1.940000 -0.288900
			CHANNELS 3 Zrotation Yrotation Xrotation
			JOINT Spine1
			{
				OFFSET 0.000000 1.950000 0.060000
				CHANNELS 3 Zrotation Yrotation Xrotation
				JOINT Neck
				{
					OFFSET 0.000000 0.000000 0.000000
					CHANNELS 3 Zrotation Yrotation Xrotation
					JOINT Neck1
					{
						OFFSET 0.000000 1.600000 0.340000
						CHANNELS 3 Zrotation Yrotation Xrotation
						JOINT Head
						{
							OFFSET 0.000000 1.667000 -0.240000
							CHANNELS 3 Zrotation Yrotation Xrotation
							End Site
							{
								OFFSET 0.000000 0.000000 0.000000
							}
						}
					}
				}
				JOINT LeftShoulder
				{
					OFFSET 0.000000 0.000000 0.000000
					CHANNELS 3 Zrotation Yrotation Xrotation
					JOINT LeftArm
					{
						OFFSET 2.700000 1.550000 -0.730000
						CHANNELS 3 Zrotation Yrotation Xrotation
						JOINT LeftForeArm
						{
							OFFSET 5.450000 0.000000 0.000000
							CHANNELS 3 Zrotation Yrotation Xrotation
							JOINT LeftHand
							{
								OFFSET 3.450000 0.000000 0.000000
								CHANNELS 3 Zrotation Yrotation Xrotation
								JOINT LeftHandIndex1
								{
									OFFSET 0.750000 0.000000 0.000000
									CHANNELS 3 Zrotation Yrotation Xrotation
									End Site
									{
										OFFSET 0.000000 0.000000 0.000000
									}
								}
							}
						}
					}
				}
				JOINT RightShoulder
				{
					OFFSET 0.000000 0.000000 0.000000
					CHANNELS 3 Zrotation Yrotation Xrotation
					JOINT RightArm
					{
						OFFSET -2.700000 1.550000 -0.730000
						CHANNELS 3 Zrotation Yrotation Xrotation
						JOINT RightForeArm
						{
							OFFSET -5.450000 0.000000 0.000000
							CHANNELS 3 Zrotation Yrotation Xrotation
							JOINT RightHand
							{
								OFFSET -3.450000 0.000000 0.000000
								CHANNELS 3 Zrotation Yrotation Xrotation
								JOINT RightHandIndex1
								{
									OFFSET -0.750000 0.000000 0.000000
									CHANNELS 3 Zrotation Yrotation Xrotation
									End Site
									{
										OFFSET 0.000000 0.000000 0.000000
									}
								}
							}
						}
					}
				}
			}
		}
	}
}
MOTION
Frames: 10
Frame Time: 0.016667
0.651460 16.899360 -2.422640 -19.802269 24.085994 -14.262170 -15.063572 11.415783 0.914004 14.848839 -2.498346 -6.112217 -7.109168 9.136558 24.561666 -0.831135 6.682072 2.466712 0.557560 -0.235810 0.559310 19.108353 -6.976264 7.344795 -20.565293 12.623545 -78.947642 7.775073 -44.349086 106.960499 -4.436359 -20.706485 -0.993872 0.126210 0.363130 0.160620 -5.017007 -2.137458 -9.299413 31.200096 -15.217616 26.811169 -8.460810 -6.662904 10.250137 1.546085 -2.740473 -8.430444 -8.220525 -1.640990 37.023409 -0.883430 -4.410290 -14.695130 -10.223251 -8.157021 0.455618 8.108777 -1.152174 -2.971883 77.195888 -54.510379 -37.327237 -3.620906 1.914110 0.990400 0.166730 -0.231480 0.230810 7.125555 5.570558 6.743537 17.154828 -16.048965 -11.531853 -81.964372 52.094468 -39.098934 1.068935 -0.904928 -0.599220 0.509700 0.083140 -0.586250 
0.596220 16.943300 -2.460580 -19.732022 18.630220 -12.048439 -14.982254 11.244417 0.895641 15.670325 -2.181493 -8.371703 -7.161435 9.077676 23.868549 -0.867908 6.467066 2.524930 0.549170 -0.242250 0.540460 19.195441 -6.943810 7.540148 -22.377793 14.355551 -80.881343 9.413385 -47.463705 108.319508 -4.678644 -21.484727 -1.089926 0.112330 0.356080 0.146410 -5.120445 -1.765486 -9.290584 32.543919 -14.810383 27.143620 -10.263372 -5.253389 9.948530 1.619986 -3.962039 -8.821850 -9.916838 -1.088891 34.980175 0.160570 -4.581260 -15.954740 -9.279683 -7.127975 0.515983 7.992794 0.899144 -2.977247 75.051081 -51.973753 -34.208148 -3.627400 2.047108 1.003610 0.137730 -0.226420 0.236640 5.824464 5.877471 7.282857 18.112912 -17.606821 -11.694268 -86.375315 51.336754 -42.206634 1.101779 -0.917698 -0.599420 0.510290 0.080280 -0.576730 
0.555920 16.983040 -2.478090 -20.265330 15.325627 -11.258228 -14.940251 11.191774 0.828250 16.419987 -1.922715 -9.266674 -6.151431 8.402848 22.205003 -0.920511 6.084970 2.665646 0.549580 -0.248610 0.545750 19.231747 -6.946497 7.664312 -24.139281 14.396139 -81.408915 9.771827 -50.674815 110.533363 -4.924772 -22.222170 -1.167347 0.090460 0.342860 0.146830 -5.185741 -1.572816 -9.265218 33.870902 -15.316947 27.533025 -11.804241 -4.909218 9.601013 1.883065 -4.626468 -9.106311 -10.754958 -0.775475 33.744114 0.692610 -4.555760 -17.389110 -9.058058 -6.928884 0.717234 8.334771 3.293910 -3.038541 72.454586 -50.997123 -31.841103 -3.615285 2.113469 1.028630 0.109400 -0.205420 0.242700 5.017332 6.308189 7.583642 17.746595 -18.530931 -11.742064 -88.400515 51.311267 -43.868241 1.122770 -0.902644 -0.592980 0.507840 0.068280 -0.572480 
0.509490 16.995140 -2.477620 -20.506536 13.401929 -10.633595 -14.924392 11.171095 0.740207 16.532389 -1.799276 -10.089631 -4.741818 7.534541 20.604396 -0.948452 5.622427 2.826227 0.593870 -0.168190 0.513780 19.245395 -6.883003 7.784681 -26.112878 13.592952 -81.779738 8.804786 -55.296604 115.376126 -5.312204 -23.395266 -1.276641 0.112540 0.330540 0.163850 -5.211590 -1.577694 -9.232725 34.077349 -15.822286 27.486554 -12.369281 -5.349828 9.417890 1.757833 -5.655802 -9.240808 -12.363523 0.132249 32.453302 2.213320 -4.674390 -18.584450 -8.566269 -6.475644 0.763670 8.032075 3.914427 -3.104911 68.346107 -50.269501 -28.937517 -3.583221 2.245056 1.011220 0.088010 -0.178720 0.284740 4.796375 6.485044 7.653796 16.925977 -18.934810 -11.365429 -92.735798 51.611031 -48.242768 1.147089 -0.909243 -0.540830 0.484340 0.035660 -0.530500 
0.473420 16.969730 -2.461600 -20.179352 10.065100 -8.853053 -14.914114 11.232537 0.752815 15.915020 -1.663458 -11.304202 -3.675422 6.858647 19.266711 -0.986355 5.270323 2.960981 0.554390 -0.211200 0.453720 19.233823 -6.960272 7.737056 -26.151085 13.989348 -79.452729 6.124824 -55.245392 118.705044 -5.381240 -23.759382 -1.316083 0.086160 0.377220 0.181130 -5.208922 -1.614949 -9.139719 33.738459 -15.192019 26.669725 -12.579408 -5.328440 8.780684 1.742101 -6.615488 -9.545645 -13.744004 0.955381 30.903560 2.632670 -4.731740 -17.094860 -8.438254 -5.933235 1.173163 6.257614 6.311439 -3.312268 69.206704 -50.983432 -30.165722 -3.613595 2.259507 0.972590 0.121930 -0.218370 0.287300 4.683357 6.878924 7.670937 15.592388 -18.493301 -11.003533 -95.778366 51.555901 -51.512505 1.173977 -0.926578 -0.533080 0.463900 0.065950 -0.507270 
0.434240 16.918750 -2.432630 -19.609127 5.691752 -6.836685 -14.877699 11.310735 0.814246 15.033592 -1.505791 -12.294117 -2.911728 6.373368 18.305338 -1.070200 5.046359 3.062308 0.520660 -0.261610 0.384900 19.219938 -7.232525 7.502420 -24.075960 15.886422 -75.162519 4.422491 -53.074458 119.740177 -5.283819 -23.594755 -1.314893 0.096010 0.461160 0.168080 -5.277724 -1.442402 -8.970506 33.436650 -13.594534 25.166075 -12.925924 -4.595795 8.403774 1.507027 -7.563382 -9.553110 -15.275545 2.156190 29.923264 4.447220 -5.204170 -15.205590 -8.297532 -4.832803 1.149434 3.529486 6.461448 -3.652934 70.030577 -51.990818 -31.872755 -3.635260 2.232258 0.954600 0.157890 -0.288750 0.303700 4.949794 6.722246 7.536227 14.497910 -17.841747 -10.513122 -99.599427 51.969343 -56.445635 1.180082 -0.911963 -0.581730 0.496440 0.111300 -0.494240 
0.388540 16.850630 -2.391690 -18.484644 1.782001 -5.117898 -14.879585 11.478436 0.919599 13.313023 -1.422303 -12.495599 -2.165519 5.734581 16.739965 -1.127022 4.750070 3.184025 0.479150 -0.303580 0.341930 19.152355 -7.453607 7.258388 -21.484306 17.630276 -70.486204 5.262167 -51.146674 118.014962 -5.120524 -23.143740 -1.278386 0.090030 0.505180 0.176950 -5.228422 -1.511576 -8.851658 31.373741 -11.445358 23.798129 -12.097471 -3.689992 8.347910 1.623648 -7.519252 -9.591112 -15.081485 2.853117 29.633455 3.926480 -4.529250 -13.490670 -9.121408 -4.083136 1.330890 -0.929552 6.065895 -4.443791 75.510596 -51.403183 -36.059159 -3.699930 2.182929 0.921990 0.205660 -0.332810 0.290470 5.482188 6.343298 7.410995 14.114161 -17.493798 -10.240808 -105.009066 51.553492 -63.293262 1.241184 -0.990596 -0.598160 0.490680 0.152530 -0.493810 
0.365560 16.752660 -2.346780 -17.673668 0.636235 -3.464466 -14.880423 11.587664 0.968297 11.316707 -1.600203 -14.073385 -0.618318 5.109585 17.093582 -1.071554 4.427011 3.340246 0.497980 -0.247510 0.326860 19.111117 -7.634467 7.052258 -20.986280 16.111114 -65.176982 7.001778 -51.451164 115.304071 -5.029453 -22.780795 -1.203308 0.098600 0.548900 0.195180 -5.196861 -1.615389 -8.702107 30.164356 -10.255375 20.241565 -11.145096 -3.780758 8.986145 1.811982 -7.004558 -9.671096 -14.028186 3.359196 29.603288 2.597670 -3.484810 -10.038350 -9.423173 -3.040656 1.833871 -6.720224 6.577951 -5.266710 80.452048 -53.623641 -42.237826 -3.698978 2.102802 0.813910 0.268290 -0.352590 0.346090 5.413422 5.033545 7.223944 14.903126 -17.580075 -9.699515 -110.835712 51.806588 -72.170919 1.344323 -1.170825 -0.544940 0.463060 0.095370 -0.442550 
0.331840 16.659960 -2.291580 -16.330782 -3.040027 -2.134584 -14.850558 11.734213 1.005812 9.134034 -1.502183 -14.256896 1.121781 4.660240 18.303529 -1.127437 4.371980 3.380240 0.479180 -0.271060 0.302900 19.076710 -7.989423 6.746368 -19.875973 15.504275 -57.905546 12.205236 -50.703914 107.555010 -4.714128 -21.713550 -1.076446 0.119780 0.609680 0.194870 -5.243379 -1.468124 -8.460970 28.687317 -8.163946 17.275206 -10.749610 -2.911952 9.635296 1.749177 -6.915497 -9.233053 -13.849212 3.749057 29.734263 2.013270 -3.209310 -8.474350 -10.275481 -1.571115 1.575587 -11.710448 5.241200 -5.727981 83.863651 -55.996349 -47.920773 -3.743399 1.928210 0.782430 0.323670 -0.404820 0.348600 6.273582 3.634725 6.907591 16.327915 -17.940524 -9.689748 -117.728181 51.492793 -82.636073 1.399293 -1.383619 -0.579120 0.490120 0.125010 -0.444660 
0.303520 16.557670 -2.246130 -15.391928 -4.475374 -1.191229 -14.816159 11.791967 1.123166 7.193137 -1.626167 -14.861386 2.290603 4.009188 17.696923 -1.180842 4.129381 3.487127 0.538320 -0.197420 0.332040 19.050319 -8.395802 6.275790 -17.935753 14.026384 -49.927796 15.347231 -49.555001 101.323205 -4.452350 -20.694883 -0.941867 0.184790 0.630260 0.210600 -5.283769 -1.250469 -8.155835 27.611793 -7.260599 13.374334 -10.675880 -3.196704 11.051886 1.887553 -6.382831 -8.629256 -12.669308 4.392664 29.814662 0.902840 -2.101280 -7.329140 -11.698610 -0.436423 1.697531 -18.114265 5.047023 -6.636508 89.508738 -56.607112 -55.149844 -3.808573 1.865887 0.736540 0.366940 -0.422530 0.382540 7.446328 1.954960 6.266363 18.113880 -16.008460 -9.436581 -123.363775 52.503179 -93.747924 1.426136 -1.591395 -0.572830 0.488170 0.089460 -0.441080 
